<?xml version="1.0" standalone="no"?>
<!DOCTYPE svg PUBLIC "-//W3C//DTD SVG 20010904//EN"
 "http://www.w3.org/TR/2001/REC-SVG-20010904/DTD/svg10.dtd">
<svg version="1.0" xmlns="http://www.w3.org/2000/svg"
 width="500.000000pt" height="500.000000pt" viewBox="0 0 500.000000 500.000000"
 preserveAspectRatio="xMidYMid meet">

<g transform="translate(0.000000,500.000000) scale(0.100000,-0.100000)"
fill="#000000" stroke="none">
<path d="M1717 3093 c-4 -3 -7 -17 -7 -29 0 -19 9 -25 55 -39 96 -28 100 -8
-90 -459 -104 -245 -177 -405 -193 -421 -14 -15 -36 -25 -53 -25 -45 0 -59
-10 -59 -41 l0 -29 195 0 195 0 0 29 c0 34 -14 41 -78 41 -26 0 -53 4 -61 9
-20 13 -16 57 14 142 15 41 29 82 32 92 5 15 24 17 212 17 l207 0 37 -94 c20
-52 37 -106 37 -120 0 -29 -25 -46 -69 -46 -47 0 -61 -9 -61 -41 l0 -29 218 2
217 3 3 27 c3 28 -2 31 -62 40 -39 6 -78 83 -221 438 -81 201 -157 383 -167
405 -31 62 -77 104 -132 120 -51 15 -157 20 -169 8z m256 -434 c43 -107 77
-198 77 -202 0 -4 -77 -7 -171 -7 -133 0 -170 3 -166 13 3 6 37 90 77 186 39
96 76 186 81 199 6 14 13 21 18 16 4 -5 42 -97 84 -205z"/>
<path d="M2539 3086 c-28 -29 4 -66 56 -66 39 0 62 -16 74 -51 15 -42 15 -757
1 -795 -14 -36 -38 -53 -76 -54 -39 0 -67 -21 -62 -46 3 -18 14 -19 228 -19
l225 0 3 24 c5 29 -12 41 -59 41 -25 0 -43 7 -60 26 -23 25 -24 31 -27 215 -4
178 -3 189 15 189 34 0 70 -34 238 -225 92 -104 185 -209 206 -232 l39 -43
135 0 135 0 0 30 c0 31 2 30 -77 45 -19 4 -91 70 -228 208 -110 111 -219 225
-242 252 l-41 50 162 167 c177 182 228 218 316 218 26 0 51 5 58 12 15 15 16
45 2 53 -17 10 -361 8 -372 -3 -18 -18 -4 -56 22 -62 44 -10 36 -40 -37 -125
-137 -161 -285 -295 -326 -295 -5 0 -7 79 -5 184 3 179 4 185 27 210 14 15 36
26 50 26 50 0 71 11 71 36 0 12 -5 26 -10 29 -17 11 -430 11 -441 1z"/>
</g>
</svg>
